<?xml version="1.0" encoding="UTF-8" standalone="no"?>
<svg
   xmlns:dc="http://purl.org/dc/elements/1.1/"
   xmlns:cc="http://creativecommons.org/ns#"
   xmlns:rdf="http://www.w3.org/1999/02/22-rdf-syntax-ns#"
   xmlns:svg="http://www.w3.org/2000/svg"
   xmlns="http://www.w3.org/2000/svg"
   xmlns:sodipodi="http://sodipodi.sourceforge.net/DTD/sodipodi-0.dtd"
   xmlns:inkscape="http://www.inkscape.org/namespaces/inkscape"
   inkscape:version="1.0 (4035a4fb49, 2020-05-01)"
   inkscape:export-ydpi="77"
   inkscape:export-xdpi="77"
   inkscape:export-filename="C:\dev\web\vws\ziekenhuizen\packages\gui\src\assets\icons\esculaap.png"
   sodipodi:docname="esculaap.svg"
   id="svg12"
   version="1.1"
   y="0px"
   x="0px"
   viewBox="0 0 34 48"
   fill="#000000"
   width="100px"
   height="100px">
  <metadata
     id="metadata18">
    <rdf:RDF>
      <cc:Work
         rdf:about="">
        <dc:format>image/svg+xml</dc:format>
        <dc:type
           rdf:resource="http://purl.org/dc/dcmitype/StillImage" />
      </cc:Work>
    </rdf:RDF>
  </metadata>
  <defs
     id="defs16" />
  <sodipodi:namedview
     inkscape:current-layer="svg12"
     inkscape:window-maximized="1"
     inkscape:window-y="-9"
     inkscape:window-x="-9"
     inkscape:cy="50"
     inkscape:cx="50"
     inkscape:zoom="9.16"
     showgrid="false"
     id="namedview14"
     inkscape:window-height="1051"
     inkscape:window-width="1920"
     inkscape:pageshadow="2"
     inkscape:pageopacity="0"
     guidetolerance="10"
     gridtolerance="10"
     objecttolerance="10"
     borderopacity="1"
     bordercolor="#666666"
     pagecolor="#ffffff" />
  <title
     id="title2">Asset 961</title>
  <g
     id="g10"
     data-name="Layer 2">
    <g
       id="g8">
      <path
         id="path4"
         d="M21,3a3,3,0,0,0-6,0V6h6Z" />
      <path
         id="path6"
         d="M15,26h6V24h5A8,8,0,0,0,26,8H11.64A3.99985,3.99985,0,0,0,9,7H4a4,4,0,0,0,0,8H9a3.99985,3.99985,0,0,0,2.64-1H26a2,2,0,0,1,0,4H21V16H15v2H12a8,8,0,0,0,0,16H22a2,2,0,0,1,0,4H21V36H15v2H13a3,3,0,0,0,0,6h2v1a2.77221,2.77221,0,0,0,.18,1,2.65394,2.65394,0,0,0,.18.42.81833.81833,0,0,0,.12.2,1.30254,1.30254,0,0,0,.1.15,2.90039,2.90039,0,0,0,1.36,1.03.493.493,0,0,0,.17.06.82971.82971,0,0,0,.21.06.85738.85738,0,0,0,.17.03,2.62662,2.62662,0,0,0,1.02,0,.85738.85738,0,0,0,.17-.03,2.95206,2.95206,0,0,0,1.74-1.15,1.30254,1.30254,0,0,0,.1-.15.81833.81833,0,0,0,.12-.2,2.65394,2.65394,0,0,0,.18-.42A2.77221,2.77221,0,0,0,21,45V44h1a8,8,0,0,0,0-16H12a2,2,0,0,1,0-4h3ZM4,11a1,1,0,1,1,1-1A1.003,1.003,0,0,1,4,11Z" />
    </g>
  </g>
</svg>
