<svg height='100px' width='100px'  fill="#000000" xmlns="http://www.w3.org/2000/svg" viewBox="0 0 48 30" x="0px" y="0px"><defs><style>.cls-1{fill-rule:evenodd;}</style></defs><title>Asset 570</title><g data-name="Layer 2"><g><path class="cls-1" d="M43.41992,14H43V11a5.00181,5.00181,0,0,0-5-5H33V3.01A3.0131,3.0131,0,0,0,29.99,0H3.01A3.0131,3.0131,0,0,0,0,3.01V26H5a6,6,0,0,1,12,0H29a5.98069,5.98069,0,0,1,4-5.6499A5.80354,5.80354,0,0,1,35,20a6.00468,6.00468,0,0,1,6,6h5.47A1.52356,1.52356,0,0,0,48,24.47V18.58008A4.57941,4.57941,0,0,0,43.41992,14ZM37.11,9A2.88511,2.88511,0,0,1,40,11.89014V14H33V9ZM21,12H19v2a2.01488,2.01488,0,0,1-2,2,2.00583,2.00583,0,0,1-2-2V12H13a2.01488,2.01488,0,0,1-2-2,2.00583,2.00583,0,0,1,2-2h2V6a2.01444,2.01444,0,0,1,2-2,2.00583,2.00583,0,0,1,2,2V8h2a2.01444,2.01444,0,0,1,2,2A2.00583,2.00583,0,0,1,21,12Z"></path><circle cx="11" cy="26" r="4"></circle><path class="cls-1" d="M35,22a4,4,0,1,0,4,4A3.98881,3.98881,0,0,0,35,22Z"></path></g></g></svg>