<svg height='100px' width='100px'  fill="#000000" xmlns="http://www.w3.org/2000/svg" viewBox="0 0 32 48" x="0px" y="0px"><title>Asset 557</title><g data-name="Layer 2"><g><path d="M30,6H2A2.00583,2.00583,0,0,0,0,8V30H32V8A2.00583,2.00583,0,0,0,30,6ZM22,21H19v3a3,3,0,0,1-6,0V21H10a3,3,0,0,1,0-6h3V12a3,3,0,0,1,6,0v3h3a3,3,0,0,1,0,6Z"></path><path d="M6,4H26a2,2,0,0,0,0-4H6A2,2,0,0,0,6,4Z"></path><path d="M0,48H12V38a2.00588,2.00588,0,0,1,2-2h4a2.00588,2.00588,0,0,1,2,2V48H32V32H0Z"></path></g></g></svg>