<svg height="100" width="100" xmlns="http://www.w3.org/2000/svg" viewBox="0 0 48 48"><g data-name="Layer 2"><path d="M28 29.5V14.315a5.203 5.203 0 0 1 2.015 3.394A1.5 1.5 0 0 0 31.498 19a1.541 1.541 0 0 0 .211-.015 1.5 1.5 0 0 0 1.276-1.694A8.765 8.765 0 0 0 24 10a8.765 8.765 0 0 0-8.985 7.29 1.5 1.5 0 0 0 2.97.42A5.203 5.203 0 0 1 20 14.314V29.5a1.5 1.5 0 0 0 3 0V22h2v7.5a1.5 1.5 0 0 0 3 0z"/><circle cx="24" cy="4" r="4"/><path d="M11.56 25.621a2.06 2.06 0 0 0-2.95 0 2.148 2.148 0 0 0 0 3l3.8 3.649a1.25 1.25 0 0 1 0 1.747 1.2 1.2 0 0 1-1.717 0L6 29V13a3.018 3.018 0 0 0-3-3 3.018 3.018 0 0 0-3 3v17.4a3.027 3.027 0 0 0 .866 2.122L12 44v4h9V38a6.406 6.406 0 0 0-1.83-4.851zM45 10a3.018 3.018 0 0 0-3 3v16l-4.693 5.017a1.2 1.2 0 0 1-1.717 0 1.25 1.25 0 0 1 0-1.747l3.8-3.649a2.148 2.148 0 0 0 0-3 2.06 2.06 0 0 0-2.95 0l-7.61 7.528A6.406 6.406 0 0 0 27 38v10h9v-4l11.134-11.478A3.027 3.027 0 0 0 48 30.4V13a3.018 3.018 0 0 0-3-3z"/></g></svg>